<?xml version="1.0" standalone="no"?><!DOCTYPE svg PUBLIC "-//W3C//DTD SVG 1.1//EN" "http://www.w3.org/Graphics/SVG/1.1/DTD/svg11.dtd"><svg t="1561641770327" class="icon" viewBox="0 0 1024 1024" version="1.1" xmlns="http://www.w3.org/2000/svg" p-id="2287" xmlns:xlink="http://www.w3.org/1999/xlink" width="200" height="200"><defs><style type="text/css"></style></defs><path d="M789.333333 170.666667 838.826667 356.266667 797.866667 367.36C778.666667 330.24 759.04 293.12 736.426667 274.346667 713.813333 256 687.36 256 661.333333 256L554.666667 256 554.666667 704C554.666667 725.333333 554.666667 746.666667 568.746667 757.333333 583.253333 768 611.413333 768 640 768L640 810.666667 384 810.666667 384 768C412.586667 768 440.746667 768 455.253333 757.333333 469.333333 746.666667 469.333333 725.333333 469.333333 704L469.333333 256 362.666667 256C336.64 256 310.186667 256 287.573333 274.346667 264.96 293.12 245.333333 330.24 226.133333 367.36L185.173333 356.266667 234.666667 170.666667 789.333333 170.666667Z" p-id="2288"></path></svg>